<svg id="c" data-name="c" xmlns="http://www.w3.org/2000/svg" viewBox="0 0 500 500"><defs><style>.cls-1{fill:none;stroke:#000;stroke-miterlimit:10;stroke-width:12px;}</style></defs><line class="cls-1" x1="115.62" y1="42" x2="59.84" y2="195"/><line class="cls-1" x1="383.69" y1="42.64" x2="440.33" y2="189.64"/><path class="cls-1" d="M65.85,213c-82.12,97.55-79.91,176.84,7.72,277"/><path class="cls-1" d="M422.84,483.88c85.75-95,88-172.58,7.72-270.88"/><ellipse class="cls-1" cx="389.8" cy="248.5" rx="12.87" ry="15"/><ellipse class="cls-1" cx="205.73" cy="249" rx="12.87" ry="15"/><line class="cls-1" x1="384.2" y1="39.28" x2="328.42" y2="192.28"/><line class="cls-1" x1="113.37" y1="44.64" x2="170.01" y2="191.64"/><line class="cls-1" x1="75.29" y1="277" x2="161.1" y2="365"/><line class="cls-1" x1="68.42" y1="364" x2="156.81" y2="278"/><line class="cls-1" x1="113.9" y1="379" x2="115.62" y2="264"/><line class="cls-1" x1="229.75" y1="326" x2="368.78" y2="326"/><line class="cls-1" x1="228.9" y1="316" x2="234.05" y2="327"/></svg>