<svg id="giko" data-name="giko" xmlns="http://www.w3.org/2000/svg" viewBox="0 0 500 500"><defs><style>.cls-1{fill:none;stroke:#000;stroke-miterlimit:10;stroke-width:12px;}</style></defs><line class="cls-1" x1="118.5" y1="42" x2="62.41" y2="195"/><line class="cls-1" x1="388.1" y1="42.64" x2="445.06" y2="189.64"/><path class="cls-1" d="M68.45,213c-82.58,97.55-80.36,176.84,7.76,277"/><path class="cls-1" d="M427.46,483.88c86.24-95,88.46-172.58,7.77-270.88"/><path d="M262.56,262.91h80.73V416.82l10,.22-.95,54H342l-.79-39.36H249L248,471H237.76l-.95-54,8.85-.22c11.37-31.18,16.9-51.08,16.9-111.45Zm12.33,15.26v33.39c0,55.28-7.27,81.82-15.64,104.82H330.5V278.17Z"/><ellipse class="cls-1" cx="394.24" cy="248.5" rx="12.95" ry="15"/><ellipse class="cls-1" cx="209.12" cy="249" rx="12.95" ry="15"/><line class="cls-1" x1="388.6" y1="39.28" x2="332.51" y2="192.28"/><line class="cls-1" x1="116.25" y1="44.64" x2="173.2" y2="191.64"/><line class="cls-1" x1="49.46" y1="295" x2="152.16" y2="294"/><line class="cls-1" x1="38.24" y1="387" x2="138.35" y2="387"/><line class="cls-1" x1="97.79" y1="225" x2="53.78" y2="449"/><line class="cls-1" x1="144.39" y1="225" x2="102.11" y2="449"/></svg>