<svg id="iyo" data-name="iyo" xmlns="http://www.w3.org/2000/svg" viewBox="0 0 500 500"><defs><style>.cls-1{fill:none;stroke:#000;stroke-miterlimit:10;stroke-width:12px;}</style></defs><line class="cls-1" x1="116.37" y1="42" x2="60.85" y2="195"/><line class="cls-1" x1="383.19" y1="42.64" x2="439.56" y2="189.64"/><path class="cls-1" d="M66.83,213C-14.9,310.55-12.7,389.84,74.52,490"/><path class="cls-1" d="M422.15,483.88c85.34-95,87.55-172.58,7.69-270.88"/><ellipse class="cls-1" cx="389.27" cy="248.5" rx="12.81" ry="15"/><ellipse class="cls-1" cx="206.05" cy="249" rx="12.81" ry="15"/><line class="cls-1" x1="383.69" y1="39.28" x2="328.17" y2="192.28"/><line class="cls-1" x1="114.13" y1="44.64" x2="170.51" y2="191.64"/><line class="cls-1" x1="48.04" y1="295" x2="149.68" y2="294"/><line class="cls-1" x1="36.93" y1="387" x2="136.01" y2="387"/><path d="M303.57,373.7c-.59,5.76-1,10.13-1,14.28.15,10.6,2.36,23,14.57,23,13.69,0,27.08-30.64,27.08-68,0-16.82-3.23-34.79-10.45-46.54l.15-.7h10.89c5.15,7.15,10.75,25.35,10.75,47,0,45.62-16.78,83.18-38.27,83.18-12.07,0-19.13-9-21.49-22.81H295C290.32,416.55,283.11,426,270.6,426c-13.1,0-25.9-15.21-25.9-48.39,0-38.48,14.72-71.43,24.43-81.8H281.2l-.15.7c-10.15,12-25,42.39-25,80.41,0,25.35,9.13,34.1,17.66,34.1,10.45,0,17.22-15,19.14-34.33l5.44-46.77H309Z"/></svg>